PathFileType	4	(X/Y/Z)	D:\TRACE\v60_Jaco2_6-2-23\BothDRS_Motion1_7-platform.trc
DataRate	CameraRate	NumFrames	NumMarkers	Units	OrigDataRate	OrigDataStartFrame	OrigNumFrames
100.00	100.00	      37	5	mm	100.00	1	      7500
Frame#	Time	Left_Front			Right_Front			Left_Aft			Right_Aft			Post			
		X1	Y1	Z1	X2	Y2	Z2	X3	Y3	Z3	X4	Y4	Z4	X5	Y5	Z5	

1	0.000	-800.64606	8.77049	-638.90332	769.55707	10.00169	-644.07721	-708.86481	7.99015	496.15997	733.09052	7.14524	505.63651	-14.21328	1307.77686	-962.21906	
2	0.010	-800.62360	8.68148	-638.98236	769.45959	10.04458	-644.12189	-708.83014	7.95104	496.17456	733.06134	7.09873	505.64438	-14.25288	1307.75562	-962.21722	
3	0.020	-800.63062	8.71920	-638.90289	769.58252	10.03254	-644.08594	-708.85486	7.98043	496.18793	733.05145	7.11671	505.64648	-14.26961	1307.77649	-962.25543	
4	0.030	-800.59149	8.73863	-638.99268	769.59131	10.01193	-644.06262	-708.82233	7.96600	496.14459	733.15228	7.15508	505.62875	-14.18711	1307.79272	-962.26074	
5	0.040	-800.60968	8.75850	-638.93671	769.58966	10.04380	-644.06378	-708.82727	7.98413	496.17529	733.22485	7.18967	505.63272	-14.25600	1307.82397	-962.26831	
6	0.050	-800.61823	8.74740	-638.92566	769.44434	9.99802	-644.14850	-708.83557	7.98436	496.17654	733.16595	7.14604	505.67206	-14.20518	1307.78882	-962.24799	
7	0.060	-800.68744	8.72982	-638.85065	769.42126	10.02829	-644.12616	-708.81311	7.94129	496.21112	733.01367	7.08883	505.65335	-14.22338	1307.79614	-962.26691	
8	0.070	-800.68097	8.74633	-638.86694	769.49475	10.00235	-644.05597	-708.81018	7.92251	496.22034	733.03906	7.10680	505.65436	-14.21867	1307.76672	-962.22089	
9	0.080	-800.59491	8.67214	-638.92694	769.55695	10.01152	-644.09650	-708.83917	7.92732	496.13028	733.18396	7.16807	505.65247	-14.18215	1307.79602	-962.25195	
10	0.090	-800.60095	8.74659	-638.92609	769.42902	10.01833	-644.16681	-708.85181	7.98550	496.19232	733.17297	7.17688	505.66327	-14.27239	1307.83130	-962.24573	
11	0.100	-800.60596	8.74948	-638.99127	769.62207	10.02886	-644.05890	-708.80859	7.94360	496.14761	733.17810	7.14786	505.65167	-14.21686	1307.81128	-962.27606	
12	0.110	-800.65833	8.74423	-638.91785	769.58142	10.00629	-644.07312	-708.85968	7.97873	496.18866	733.10541	7.13607	505.67892	-14.28415	1307.78247	-962.26886	
13	0.120	-800.65948	8.75616	-638.88116	769.54572	10.00924	-644.06476	-708.85614	7.94277	496.19821	732.99597	7.07450	505.64755	-14.21329	1307.76147	-962.21680	
14	0.130	-800.62463	8.75015	-638.93738	769.45239	10.05352	-644.10242	-708.83447	7.94882	496.18451	733.03955	7.07668	505.66843	-14.25272	1307.79810	-962.22479	
15	0.140	-800.58759	8.73290	-638.98956	769.45483	10.03230	-644.14197	-708.85217	7.96830	496.15344	733.15887	7.15341	505.63992	-14.19146	1307.80164	-962.24274	
16	0.150	-800.56116	8.76906	-638.98010	769.57220	10.00638	-644.09949	-708.86224	8.01539	496.13785	733.11664	7.12777	505.62106	-14.24333	1307.83618	-962.22675	
17	0.160	-800.59546	8.75811	-638.93915	769.63055	10.02861	-644.04956	-708.84387	7.99674	496.17816	733.10620	7.12327	505.60980	-14.23719	1307.82104	-962.26306	
18	0.170	-800.67456	8.73630	-638.85834	769.53235	9.98942	-644.12274	-708.85052	7.95779	496.14371	733.12738	7.11891	505.63638	-14.25281	1307.80298	-962.25854	
19	0.180	-800.62518	8.71191	-638.90619	769.58539	10.00434	-644.07184	-708.84967	7.96531	496.14853	733.11572	7.13246	505.66446	-14.21843	1307.79895	-962.24896	
20	0.190	-800.59528	8.69836	-638.98242	769.60822	10.01588	-644.03754	-708.88556	8.02193	496.10468	733.12640	7.11878	505.63120	-14.25135	1307.80627	-962.24670	
21	0.200	-800.55170	8.65061	-639.02765	769.43677	10.06660	-644.12384	-708.84021	7.98071	496.19836	733.15771	7.16167	505.64120	-14.19903	1307.82849	-962.25360	
22	0.210	-800.61053	8.74107	-638.94348	769.43652	10.04356	-644.14172	-708.83319	7.98609	496.18405	733.14386	7.12727	505.63721	-14.20839	1307.83435	-962.25543	
23	0.220	-800.65887	8.66130	-638.89819	769.54364	10.00143	-644.09857	-708.87469	8.01837	496.16339	733.12915	7.15214	505.68384	-14.25137	1307.78101	-962.26379	
24	0.230	-800.69482	8.70316	-638.87097	769.48157	9.96960	-644.11542	-708.88086	7.99890	496.16608	733.00140	7.10738	505.69653	-14.26968	1307.77405	-962.22101	
25	0.240	-800.67200	8.67787	-638.90155	769.55511	10.00190	-644.08008	-708.82373	7.95791	496.18640	733.11200	7.11068	505.68915	-14.26080	1307.79675	-962.24438	
26	0.250	-800.64490	8.69968	-638.93182	769.56366	9.98644	-644.08179	-708.86511	7.98999	496.15857	733.11438	7.12322	505.64447	-14.20748	1307.77734	-962.24512	
27	0.260	-800.63586	8.73754	-638.96021	769.60754	10.00868	-644.09076	-708.82111	8.01058	496.15002	733.11060	7.14660	505.64423	-14.22807	1307.83948	-962.24261	
28	0.270	-800.62787	8.66814	-638.92798	769.54620	9.98220	-644.10999	-708.82251	7.97533	496.16904	732.97833	7.04824	505.66342	-14.24714	1307.80688	-962.23138	
29	0.280	-800.66882	8.66952	-638.93018	769.34515	10.02040	-644.17358	-708.88556	7.98037	496.16531	733.00537	7.09989	505.68921	-14.23978	1307.77966	-962.20154	
30	0.290	-800.69806	8.65901	-638.87897	769.55542	9.98494	-644.09991	-708.84192	7.94305	496.15036	732.99780	7.07454	505.68344	-14.17411	1307.76892	-962.26373	
31	0.300	-800.68408	8.72355	-638.85858	769.41321	10.04151	-644.16510	-708.80945	7.99769	496.13831	733.05762	7.09623	505.67661	-14.23188	1307.82922	-962.22473	
32	0.310	-800.64929	8.72565	-638.90680	769.57965	10.02063	-644.12311	-708.82782	7.98691	496.14212	733.11646	7.12325	505.66104	-14.24617	1307.82520	-962.24976	
33	0.320	-800.66223	8.69974	-638.90930	769.57532	10.03339	-644.11572	-708.84460	8.01929	496.17487	733.14966	7.11609	505.63086	-14.24213	1307.84521	-962.23016	
34	0.330	-800.64636	8.67685	-638.91534	769.54645	9.99225	-644.12744	-708.85645	7.95971	496.17172	733.04919	7.11451	505.65860	-14.25800	1307.79004	-962.26886	
35	0.340	-800.65344	8.66805	-638.88684	769.53052	10.00694	-644.12854	-708.84821	7.95735	496.16968	733.02228	7.09031	505.67725	-14.25721	1307.76453	-962.25647	
36	0.350	-800.61969	8.65152	-638.92792	769.54755	10.01405	-644.13855	-708.85278	7.96393	496.15613	733.13422	7.14836	505.68887	-14.27034	1307.77002	-962.26257	
37	0.360	-800.59485	8.74626	-638.97797	769.55908	10.01709	-644.13251	-708.86115	8.00100	496.17163	733.18048	7.17332	505.68469	-14.28757	1307.85022	-962.29584	
